
<svg width="247.286133" height="704.422607" viewBox="0 0 247.286 704.423" fill="none" xmlns="http://www.w3.org/2000/svg" xmlns:xlink="http://www.w3.org/1999/xlink">
	<desc>
			Created with Pixso.
	</desc>
	<defs/>
	<path id="Star 5" d="M66.01 640.42L63.58 646.99L57.01 649.42L63.58 651.85L66.01 658.42L68.45 651.85L75.01 649.42L68.45 646.99L66.01 640.42Z" fill="#BCEC30" fill-opacity="1.000000" fill-rule="evenodd"/>
	<path id="Star 5" d="M63.58 646.99L57.01 649.42L63.58 651.85L66.01 658.42L68.45 651.85L75.01 649.42L68.45 646.99L66.01 640.42L63.58 646.99ZM66.01 643.3L64.36 647.77L59.9 649.42L64.36 651.07L66.01 655.54L67.67 651.07L72.13 649.42L67.67 647.77L66.01 643.3Z" fill="#202027" fill-opacity="1.000000" fill-rule="evenodd"/>
	<path id="Star 4" d="M102.25 678.38L88.01 683.92L102.25 689.45L107.52 704.42L112.78 689.45L127.02 683.92L112.78 678.38L107.52 663.42L102.25 678.38ZM107.52 666.43L103.04 679.15L90.77 683.92L103.04 688.69L107.52 701.41L111.99 688.69L124.26 683.92L111.99 679.15L107.52 666.43Z" fill="#202027" fill-opacity="1.000000" fill-rule="evenodd"/>
	<path id="Vector" d="M163.24 93.53C166.09 94.31 245.3 127.34 245.3 127.34L161.26 136.24L214.35 203.49L139.5 157.56L131.87 235.41L110.78 153.42L40.46 192.42L88.9 135.18L2.93 131.31L83.73 107.41L23.69 39.19L108.1 78.37L127.42 2.78L136.1 78.53L212.99 26.28L163.24 93.53Z" fill="#BCEC30" fill-opacity="1.000000" fill-rule="nonzero"/>
	<path id="Vector" d="M245.3 127.34L161.26 136.24L214.35 203.49L139.5 157.56L131.87 235.41L110.78 153.42L40.46 192.42L88.9 135.18L2.93 131.31L83.73 107.41L23.69 39.19L108.1 78.37L127.42 2.78L136.1 78.53L212.99 26.28L163.24 93.53C166.09 94.31 245.3 127.34 245.3 127.34Z" stroke="#202027" stroke-opacity="1.000000" stroke-width="1.000000"/>
</svg>
